<svg width="200" height="66" viewBox="0 0 200 66" fill="none" xmlns="http://www.w3.org/2000/svg">
<g opacity="0.8">
<path d="M191.559 65.1487H8.44072C4.12598 65.1487 0.628906 61.6516 0.628906 57.3369V8.44072C0.628906 4.12599 4.12598 0.628906 8.44072 0.628906H191.559C195.874 0.628906 199.371 4.12599 199.371 8.44072V57.3369C199.371 61.6516 195.874 65.1487 191.559 65.1487Z" fill="black"/>
<path d="M191.559 65.1487H8.44072C4.12598 65.1487 0.628906 61.6516 0.628906 57.3369V8.44072C0.628906 4.12599 4.12598 0.628906 8.44072 0.628906H191.559C195.874 0.628906 199.371 4.12599 199.371 8.44072V57.3369C199.371 61.6516 195.874 65.1487 191.559 65.1487Z" fill="white"/>
<path fill-rule="evenodd" clip-rule="evenodd" d="M8.44078 1.25794C4.47341 1.25794 1.25794 4.47342 1.25794 8.44079V57.3369C1.25794 61.3043 4.47341 64.5198 8.44078 64.5198H191.559C195.527 64.5198 198.742 61.3043 198.742 57.3369V8.44079C198.742 4.47342 195.527 1.25794 191.559 1.25794H8.44078ZM0 8.44079C0 3.77868 3.77867 0 8.44078 0H191.559C196.221 0 200 3.77868 200 8.44079V57.3369C200 61.999 196.221 65.7777 191.559 65.7777H8.44078C3.77867 65.7777 0 61.9991 0 57.3369V8.44079Z" fill="black"/>
<path fill-rule="evenodd" clip-rule="evenodd" d="M63.6623 12.4923C64.4841 12.9116 65.1215 13.5154 65.5743 14.3037C66.0272 15.0836 66.2536 15.9977 66.2536 17.046C66.2536 18.0943 66.0272 19.0042 65.5743 19.7757C65.1215 20.5389 64.4841 21.1259 63.6623 21.5368C62.8404 21.9478 61.8801 22.1532 60.7815 22.1532H57.4229V11.8633H60.7815C61.8801 11.8633 62.8404 12.0729 63.6623 12.4923ZM63.549 19.8009C64.1948 19.1468 64.5176 18.2285 64.5176 17.046C64.5176 15.8468 64.1948 14.9117 63.549 14.2408C62.9117 13.5699 61.9892 13.2344 60.7815 13.2344H59.1085V20.7821H60.7815C61.9892 20.7821 62.9117 20.455 63.549 19.8009Z" fill="black"/>
<path fill-rule="evenodd" clip-rule="evenodd" d="M63.6623 12.4923C64.4841 12.9116 65.1215 13.5154 65.5743 14.3037C66.0272 15.0836 66.2536 15.9977 66.2536 17.046C66.2536 18.0943 66.0272 19.0042 65.5743 19.7757C65.1215 20.5389 64.4841 21.1259 63.6623 21.5368C62.8404 21.9478 61.8801 22.1532 60.7815 22.1532H57.4229V11.8633H60.7815C61.8801 11.8633 62.8404 12.0729 63.6623 12.4923ZM63.549 19.8009C64.1948 19.1468 64.5176 18.2285 64.5176 17.046C64.5176 15.8468 64.1948 14.9117 63.549 14.2408C62.9117 13.5699 61.9892 13.2344 60.7815 13.2344H59.1085V20.7821H60.7815C61.9892 20.7821 62.9117 20.455 63.549 19.8009Z" fill="black"/>
<path fill-rule="evenodd" clip-rule="evenodd" d="M69.3741 21.7622C68.7536 21.4099 68.263 20.9152 67.9024 20.2778C67.5501 19.6405 67.374 18.9024 67.374 18.0638C67.374 17.2336 67.5585 16.4998 67.9275 15.8624C68.2881 15.2167 68.7829 14.7219 69.4119 14.3781C70.0492 14.0342 70.7579 13.8623 71.5378 13.8623C72.3177 13.8623 73.0222 14.0342 73.6511 14.3781C74.2885 14.7219 74.7875 15.2167 75.1481 15.8624C75.5171 16.4998 75.7016 17.2336 75.7016 18.0638C75.7016 18.8941 75.5129 19.6321 75.1355 20.2778C74.7581 20.9152 74.2466 21.4099 73.6008 21.7622C72.9551 22.1144 72.2423 22.2905 71.4623 22.2905C70.6908 22.2905 69.9947 22.1144 69.3741 21.7622ZM72.6825 20.5042C73.0599 20.303 73.3702 19.9927 73.6134 19.5734C73.8482 19.1624 73.9656 18.6592 73.9656 18.0638C73.9656 17.4768 73.8524 16.9778 73.626 16.5669C73.3996 16.156 73.0977 15.8457 72.7203 15.636C72.3429 15.4263 71.9361 15.3215 71.5 15.3215C71.0723 15.3215 70.674 15.4263 70.305 15.636C69.9276 15.8457 69.6299 16.156 69.4119 16.5669C69.2022 16.9778 69.0974 17.4768 69.0974 18.0638C69.0974 18.9444 69.3196 19.6237 69.7641 20.1017C70.217 20.5797 70.783 20.8187 71.4623 20.8187C71.8984 20.8187 72.3051 20.7139 72.6825 20.5042Z" fill="black"/>
<path fill-rule="evenodd" clip-rule="evenodd" d="M69.3741 21.7622C68.7536 21.4099 68.263 20.9152 67.9024 20.2778C67.5501 19.6405 67.374 18.9024 67.374 18.0638C67.374 17.2336 67.5585 16.4998 67.9275 15.8624C68.2881 15.2167 68.7829 14.7219 69.4119 14.3781C70.0492 14.0342 70.7579 13.8623 71.5378 13.8623C72.3177 13.8623 73.0222 14.0342 73.6511 14.3781C74.2885 14.7219 74.7875 15.2167 75.1481 15.8624C75.5171 16.4998 75.7016 17.2336 75.7016 18.0638C75.7016 18.8941 75.5129 19.6321 75.1355 20.2778C74.7581 20.9152 74.2466 21.4099 73.6008 21.7622C72.9551 22.1144 72.2423 22.2905 71.4623 22.2905C70.6908 22.2905 69.9947 22.1144 69.3741 21.7622ZM72.6825 20.5042C73.0599 20.303 73.3702 19.9927 73.6134 19.5734C73.8482 19.1624 73.9656 18.6592 73.9656 18.0638C73.9656 17.4768 73.8524 16.9778 73.626 16.5669C73.3996 16.156 73.0977 15.8457 72.7203 15.636C72.3429 15.4263 71.9361 15.3215 71.5 15.3215C71.0723 15.3215 70.674 15.4263 70.305 15.636C69.9276 15.8457 69.6299 16.156 69.4119 16.5669C69.2022 16.9778 69.0974 17.4768 69.0974 18.0638C69.0974 18.9444 69.3196 19.6237 69.7641 20.1017C70.217 20.5797 70.783 20.8187 71.4623 20.8187C71.8984 20.8187 72.3051 20.7139 72.6825 20.5042Z" fill="black"/>
<path d="M88.3296 13.9893L85.8011 22.1533H84.0148L82.3795 16.1278L80.7316 22.1533H78.9579L76.4043 13.9893H78.1277L79.8259 20.5557L81.5619 13.9893H83.323L84.9835 20.5306L86.6691 13.9893H88.3296Z" fill="black"/>
<path d="M88.3296 13.9893L85.8011 22.1533H84.0148L82.3795 16.1278L80.7316 22.1533H78.9579L76.4043 13.9893H78.1277L79.8259 20.5557L81.5619 13.9893H83.323L84.9835 20.5306L86.6691 13.9893H88.3296Z" fill="black"/>
<path d="M95.4248 14.2648C95.9363 14.5248 96.3347 14.919 96.6198 15.4473C96.9049 15.9673 97.0475 16.5962 97.0475 17.3342V22.1521H95.3744V17.5858C95.3744 16.8562 95.1941 16.2985 94.8335 15.9127C94.4645 15.5186 93.9655 15.3215 93.3366 15.3215C92.7076 15.3215 92.2044 15.5186 91.827 15.9127C91.458 16.2985 91.2735 16.8562 91.2735 17.5858V22.1521H89.5879V13.9881H91.2735V14.9316C91.5503 14.5961 91.9025 14.3319 92.3302 14.1391C92.7663 13.9546 93.2233 13.8623 93.7014 13.8623C94.3471 13.8623 94.9216 13.9965 95.4248 14.2648Z" fill="black"/>
<path d="M95.4248 14.2648C95.9363 14.5248 96.3347 14.919 96.6198 15.4473C96.9049 15.9673 97.0475 16.5962 97.0475 17.3342V22.1521H95.3744V17.5858C95.3744 16.8562 95.1941 16.2985 94.8335 15.9127C94.4645 15.5186 93.9655 15.3215 93.3366 15.3215C92.7076 15.3215 92.2044 15.5186 91.827 15.9127C91.458 16.2985 91.2735 16.8562 91.2735 17.5858V22.1521H89.5879V13.9881H91.2735V14.9316C91.5503 14.5961 91.9025 14.3319 92.3302 14.1391C92.7663 13.9546 93.2233 13.8623 93.7014 13.8623C94.3471 13.8623 94.9216 13.9965 95.4248 14.2648Z" fill="black"/>
<path d="M100.884 11.1963V22.1529H99.1987V11.1963H100.884Z" fill="black"/>
<path d="M100.884 11.1963V22.1529H99.1987V11.1963H100.884Z" fill="black"/>
<path fill-rule="evenodd" clip-rule="evenodd" d="M104.557 21.7622C103.936 21.4099 103.45 20.9152 103.098 20.2778C102.737 19.6405 102.557 18.9024 102.557 18.0638C102.557 17.2336 102.741 16.4998 103.11 15.8624C103.471 15.2167 103.97 14.7219 104.607 14.3781C105.236 14.0342 105.94 13.8623 106.72 13.8623C107.5 13.8623 108.209 14.0342 108.846 14.3781C109.475 14.7219 109.97 15.2167 110.331 15.8624C110.7 16.4998 110.884 17.2336 110.884 18.0638C110.884 18.8941 110.696 19.6321 110.318 20.2778C109.949 20.9152 109.438 21.4099 108.783 21.7622C108.138 22.1144 107.425 22.2905 106.645 22.2905C105.873 22.2905 105.177 22.1144 104.557 21.7622ZM107.865 20.5042C108.251 20.303 108.561 19.9927 108.796 19.5734C109.031 19.1624 109.148 18.6592 109.148 18.0638C109.148 17.4768 109.035 16.9778 108.809 16.5669C108.582 16.156 108.28 15.8457 107.903 15.636C107.534 15.4263 107.131 15.3215 106.695 15.3215C106.259 15.3215 105.857 15.4263 105.488 15.636C105.119 15.8457 104.825 16.156 104.607 16.5669C104.389 16.9778 104.28 17.4768 104.28 18.0638C104.28 18.9444 104.502 19.6237 104.947 20.1017C105.4 20.5797 105.966 20.8187 106.645 20.8187C107.081 20.8187 107.488 20.7139 107.865 20.5042Z" fill="black"/>
<path fill-rule="evenodd" clip-rule="evenodd" d="M104.557 21.7622C103.936 21.4099 103.45 20.9152 103.098 20.2778C102.737 19.6405 102.557 18.9024 102.557 18.0638C102.557 17.2336 102.741 16.4998 103.11 15.8624C103.471 15.2167 103.97 14.7219 104.607 14.3781C105.236 14.0342 105.94 13.8623 106.72 13.8623C107.5 13.8623 108.209 14.0342 108.846 14.3781C109.475 14.7219 109.97 15.2167 110.331 15.8624C110.7 16.4998 110.884 17.2336 110.884 18.0638C110.884 18.8941 110.696 19.6321 110.318 20.2778C109.949 20.9152 109.438 21.4099 108.783 21.7622C108.138 22.1144 107.425 22.2905 106.645 22.2905C105.873 22.2905 105.177 22.1144 104.557 21.7622ZM107.865 20.5042C108.251 20.303 108.561 19.9927 108.796 19.5734C109.031 19.1624 109.148 18.6592 109.148 18.0638C109.148 17.4768 109.035 16.9778 108.809 16.5669C108.582 16.156 108.28 15.8457 107.903 15.636C107.534 15.4263 107.131 15.3215 106.695 15.3215C106.259 15.3215 105.857 15.4263 105.488 15.636C105.119 15.8457 104.825 16.156 104.607 16.5669C104.389 16.9778 104.28 17.4768 104.28 18.0638C104.28 18.9444 104.502 19.6237 104.947 20.1017C105.4 20.5797 105.966 20.8187 106.645 20.8187C107.081 20.8187 107.488 20.7139 107.865 20.5042Z" fill="black"/>
<path fill-rule="evenodd" clip-rule="evenodd" d="M112.509 15.8624C112.853 15.2251 113.318 14.7345 113.905 14.3906C114.492 14.0384 115.138 13.8623 115.842 13.8623C116.488 13.8623 117.05 13.9881 117.528 14.2397C118.006 14.4913 118.388 14.8058 118.673 15.1832V13.9881H120.384V22.1521H118.673V20.9445C118.388 21.3219 117.998 21.6406 117.503 21.9005C117.008 22.1605 116.446 22.2905 115.817 22.2905C115.113 22.2905 114.471 22.1102 113.893 21.7496C113.314 21.389 112.853 20.8858 112.509 20.2401C112.165 19.5943 111.993 18.8605 111.993 18.0387C111.993 17.2168 112.165 16.4914 112.509 15.8624ZM118.333 16.6046C118.098 16.1853 117.792 15.8666 117.415 15.6486C117.037 15.4305 116.635 15.3215 116.207 15.3215C115.771 15.3215 115.364 15.4305 114.987 15.6486C114.61 15.8582 114.308 16.1685 114.081 16.5795C113.847 16.9904 113.729 17.4768 113.729 18.0387C113.729 18.6005 113.847 19.0953 114.081 19.523C114.308 19.9424 114.614 20.2652 115 20.4917C115.377 20.7097 115.78 20.8187 116.207 20.8187C116.635 20.8187 117.037 20.7097 117.415 20.4917C117.792 20.2736 118.098 19.9549 118.333 19.5356C118.56 19.1163 118.673 18.6257 118.673 18.0638C118.673 17.5019 118.56 17.0155 118.333 16.6046Z" fill="black"/>
<path fill-rule="evenodd" clip-rule="evenodd" d="M112.509 15.8624C112.853 15.2251 113.318 14.7345 113.905 14.3906C114.492 14.0384 115.138 13.8623 115.842 13.8623C116.488 13.8623 117.05 13.9881 117.528 14.2397C118.006 14.4913 118.388 14.8058 118.673 15.1832V13.9881H120.384V22.1521H118.673V20.9445C118.388 21.3219 117.998 21.6406 117.503 21.9005C117.008 22.1605 116.446 22.2905 115.817 22.2905C115.113 22.2905 114.471 22.1102 113.893 21.7496C113.314 21.389 112.853 20.8858 112.509 20.2401C112.165 19.5943 111.993 18.8605 111.993 18.0387C111.993 17.2168 112.165 16.4914 112.509 15.8624ZM118.333 16.6046C118.098 16.1853 117.792 15.8666 117.415 15.6486C117.037 15.4305 116.635 15.3215 116.207 15.3215C115.771 15.3215 115.364 15.4305 114.987 15.6486C114.61 15.8582 114.308 16.1685 114.081 16.5795C113.847 16.9904 113.729 17.4768 113.729 18.0387C113.729 18.6005 113.847 19.0953 114.081 19.523C114.308 19.9424 114.614 20.2652 115 20.4917C115.377 20.7097 115.78 20.8187 116.207 20.8187C116.635 20.8187 117.037 20.7097 117.415 20.4917C117.792 20.2736 118.098 19.9549 118.333 19.5356C118.56 19.1163 118.673 18.6257 118.673 18.0638C118.673 17.5019 118.56 17.0155 118.333 16.6046Z" fill="black"/>
<path fill-rule="evenodd" clip-rule="evenodd" d="M122.545 15.8632C122.889 15.2259 123.354 14.7353 123.941 14.3915C124.529 14.0392 125.183 13.8631 125.904 13.8631C126.432 13.8631 126.956 13.9763 127.476 14.2028C127.996 14.4376 128.411 14.7479 128.722 15.1337V11.1963H130.42V22.153H128.722V20.9202C128.445 21.3143 128.059 21.6414 127.564 21.9014C127.078 22.1613 126.52 22.2913 125.891 22.2913C125.178 22.2913 124.529 22.111 123.941 21.7504C123.354 21.3898 122.889 20.8866 122.545 20.2409C122.21 19.5951 122.042 18.8613 122.042 18.0395C122.042 17.2176 122.21 16.4922 122.545 15.8632ZM128.369 16.6054C128.135 16.1861 127.829 15.8674 127.451 15.6494C127.082 15.4314 126.68 15.3223 126.244 15.3223C125.807 15.3223 125.401 15.4314 125.023 15.6494C124.654 15.8591 124.352 16.1694 124.118 16.5803C123.883 16.9912 123.765 17.4776 123.765 18.0395C123.765 18.6014 123.883 19.0962 124.118 19.5239C124.352 19.9432 124.659 20.266 125.036 20.4925C125.413 20.7105 125.816 20.8195 126.244 20.8195C126.68 20.8195 127.082 20.7105 127.451 20.4925C127.829 20.2744 128.135 19.9558 128.369 19.5364C128.604 19.1171 128.722 18.6265 128.722 18.0646C128.722 17.5028 128.604 17.0164 128.369 16.6054Z" fill="black"/>
<path fill-rule="evenodd" clip-rule="evenodd" d="M122.545 15.8632C122.889 15.2259 123.354 14.7353 123.941 14.3915C124.529 14.0392 125.183 13.8631 125.904 13.8631C126.432 13.8631 126.956 13.9763 127.476 14.2028C127.996 14.4376 128.411 14.7479 128.722 15.1337V11.1963H130.42V22.153H128.722V20.9202C128.445 21.3143 128.059 21.6414 127.564 21.9014C127.078 22.1613 126.52 22.2913 125.891 22.2913C125.178 22.2913 124.529 22.111 123.941 21.7504C123.354 21.3898 122.889 20.8866 122.545 20.2409C122.21 19.5951 122.042 18.8613 122.042 18.0395C122.042 17.2176 122.21 16.4922 122.545 15.8632ZM128.369 16.6054C128.135 16.1861 127.829 15.8674 127.451 15.6494C127.082 15.4314 126.68 15.3223 126.244 15.3223C125.807 15.3223 125.401 15.4314 125.023 15.6494C124.654 15.8591 124.352 16.1694 124.118 16.5803C123.883 16.9912 123.765 17.4776 123.765 18.0395C123.765 18.6014 123.883 19.0962 124.118 19.5239C124.352 19.9432 124.659 20.266 125.036 20.4925C125.413 20.7105 125.816 20.8195 126.244 20.8195C126.68 20.8195 127.082 20.7105 127.451 20.4925C127.829 20.2744 128.135 19.9558 128.369 19.5364C128.604 19.1171 128.722 18.6265 128.722 18.0646C128.722 17.5028 128.604 17.0164 128.369 16.6054Z" fill="black"/>
<path fill-rule="evenodd" clip-rule="evenodd" d="M137.944 21.7622C137.324 21.4099 136.833 20.9152 136.473 20.2778C136.12 19.6405 135.944 18.9024 135.944 18.0638C135.944 17.2336 136.129 16.4998 136.498 15.8624C136.858 15.2167 137.357 14.7219 137.995 14.3781C138.624 14.0342 139.328 13.8623 140.108 13.8623C140.888 13.8623 141.593 14.0342 142.221 14.3781C142.859 14.7219 143.358 15.2167 143.718 15.8624C144.087 16.4998 144.272 17.2336 144.272 18.0638C144.272 18.8941 144.083 19.6321 143.706 20.2778C143.328 20.9152 142.817 21.4099 142.171 21.7622C141.525 22.1144 140.813 22.2905 140.033 22.2905C139.261 22.2905 138.565 22.1144 137.944 21.7622ZM141.253 20.5042C141.63 20.303 141.941 19.9927 142.184 19.5734C142.419 19.1624 142.536 18.6592 142.536 18.0638C142.536 17.4768 142.423 16.9778 142.196 16.5669C141.97 16.156 141.668 15.8457 141.291 15.636C140.913 15.4263 140.511 15.3215 140.083 15.3215C139.647 15.3215 139.244 15.4263 138.875 15.636C138.498 15.8457 138.204 16.156 137.995 16.5669C137.777 16.9778 137.668 17.4768 137.668 18.0638C137.668 18.9444 137.89 19.6237 138.334 20.1017C138.787 20.5797 139.353 20.8187 140.033 20.8187C140.469 20.8187 140.875 20.7139 141.253 20.5042Z" fill="black"/>
<path fill-rule="evenodd" clip-rule="evenodd" d="M137.944 21.7622C137.324 21.4099 136.833 20.9152 136.473 20.2778C136.12 19.6405 135.944 18.9024 135.944 18.0638C135.944 17.2336 136.129 16.4998 136.498 15.8624C136.858 15.2167 137.357 14.7219 137.995 14.3781C138.624 14.0342 139.328 13.8623 140.108 13.8623C140.888 13.8623 141.593 14.0342 142.221 14.3781C142.859 14.7219 143.358 15.2167 143.718 15.8624C144.087 16.4998 144.272 17.2336 144.272 18.0638C144.272 18.8941 144.083 19.6321 143.706 20.2778C143.328 20.9152 142.817 21.4099 142.171 21.7622C141.525 22.1144 140.813 22.2905 140.033 22.2905C139.261 22.2905 138.565 22.1144 137.944 21.7622ZM141.253 20.5042C141.63 20.303 141.941 19.9927 142.184 19.5734C142.419 19.1624 142.536 18.6592 142.536 18.0638C142.536 17.4768 142.423 16.9778 142.196 16.5669C141.97 16.156 141.668 15.8457 141.291 15.636C140.913 15.4263 140.511 15.3215 140.083 15.3215C139.647 15.3215 139.244 15.4263 138.875 15.636C138.498 15.8457 138.204 16.156 137.995 16.5669C137.777 16.9778 137.668 17.4768 137.668 18.0638C137.668 18.9444 137.89 19.6237 138.334 20.1017C138.787 20.5797 139.353 20.8187 140.033 20.8187C140.469 20.8187 140.875 20.7139 141.253 20.5042Z" fill="black"/>
<path d="M151.781 14.2648C152.293 14.5248 152.691 14.919 152.976 15.4473C153.261 15.9673 153.404 16.5962 153.404 17.3342V22.1521H151.731V17.5858C151.731 16.8562 151.551 16.2985 151.19 15.9127C150.821 15.5186 150.322 15.3215 149.693 15.3215C149.056 15.3215 148.552 15.5186 148.183 15.9127C147.814 16.2985 147.63 16.8562 147.63 17.5858V22.1521H145.944V13.9881H147.63V14.9316C147.907 14.5961 148.259 14.3319 148.687 14.1391C149.114 13.9546 149.571 13.8623 150.058 13.8623C150.704 13.8623 151.278 13.9965 151.781 14.2648Z" fill="black"/>
<path d="M151.781 14.2648C152.293 14.5248 152.691 14.919 152.976 15.4473C153.261 15.9673 153.404 16.5962 153.404 17.3342V22.1521H151.731V17.5858C151.731 16.8562 151.551 16.2985 151.19 15.9127C150.821 15.5186 150.322 15.3215 149.693 15.3215C149.056 15.3215 148.552 15.5186 148.183 15.9127C147.814 16.2985 147.63 16.8562 147.63 17.5858V22.1521H145.944V13.9881H147.63V14.9316C147.907 14.5961 148.259 14.3319 148.687 14.1391C149.114 13.9546 149.571 13.8623 150.058 13.8623C150.704 13.8623 151.278 13.9965 151.781 14.2648Z" fill="black"/>
<path d="M161.38 15.3729V19.8889C161.38 20.1908 161.452 20.4088 161.594 20.543C161.737 20.6772 161.98 20.7443 162.324 20.7443H163.355V22.1532H162.022C161.267 22.1532 160.684 21.9771 160.273 21.6248C159.871 21.2642 159.669 20.6856 159.669 19.8889V15.3729H158.713V13.9891H159.669V11.9639H161.38V13.9891H163.355V15.3729H161.38Z" fill="black"/>
<path d="M161.38 15.3729V19.8889C161.38 20.1908 161.452 20.4088 161.594 20.543C161.737 20.6772 161.98 20.7443 162.324 20.7443H163.355V22.1532H162.022C161.267 22.1532 160.684 21.9771 160.273 21.6248C159.871 21.2642 159.669 20.6856 159.669 19.8889V15.3729H158.713V13.9891H159.669V11.9639H161.38V13.9891H163.355V15.3729H161.38Z" fill="black"/>
<path d="M170.8 14.2657C171.287 14.5256 171.672 14.9198 171.958 15.4481C172.234 15.9681 172.373 16.5971 172.373 17.335V22.1529H170.7V17.5866C170.7 16.857 170.519 16.2993 170.159 15.9136C169.79 15.5194 169.291 15.3223 168.662 15.3223C168.024 15.3223 167.521 15.5194 167.152 15.9136C166.783 16.2993 166.599 16.857 166.599 17.5866V22.1529H164.913V11.1963H166.599V14.945C166.884 14.6011 167.249 14.3328 167.693 14.1399C168.129 13.9554 168.611 13.8631 169.14 13.8631C169.76 13.8631 170.314 13.9973 170.8 14.2657Z" fill="black"/>
<path d="M170.8 14.2657C171.287 14.5256 171.672 14.9198 171.958 15.4481C172.234 15.9681 172.373 16.5971 172.373 17.335V22.1529H170.7V17.5866C170.7 16.857 170.519 16.2993 170.159 15.9136C169.79 15.5194 169.291 15.3223 168.662 15.3223C168.024 15.3223 167.521 15.5194 167.152 15.9136C166.783 16.2993 166.599 16.857 166.599 17.5866V22.1529H164.913V11.1963H166.599V14.945C166.884 14.6011 167.249 14.3328 167.693 14.1399C168.129 13.9554 168.611 13.8631 169.14 13.8631C169.76 13.8631 170.314 13.9973 170.8 14.2657Z" fill="black"/>
<path fill-rule="evenodd" clip-rule="evenodd" d="M181.945 18.7054H175.706C175.756 19.3595 176 19.8837 176.436 20.2778C176.872 20.672 177.404 20.869 178.033 20.869C178.939 20.869 179.581 20.4875 179.958 19.7243H181.782C181.539 20.4791 181.09 21.0955 180.436 21.5735C179.79 22.0515 178.989 22.2905 178.033 22.2905C177.253 22.2905 176.557 22.1144 175.945 21.7622C175.324 21.4099 174.838 20.9152 174.486 20.2778C174.134 19.6405 173.958 18.9024 173.958 18.0638C173.958 17.2252 174.129 16.4872 174.473 15.8498C174.817 15.2125 175.295 14.7219 175.907 14.3781C176.528 14.0342 177.237 13.8623 178.033 13.8623C178.805 13.8623 179.492 14.03 180.096 14.3655C180.7 14.7009 181.17 15.1706 181.505 15.7744C181.841 16.3866 182.008 17.0868 182.008 17.8751C182.008 18.177 181.987 18.4538 181.945 18.7054ZM180.247 17.3342C180.23 16.7136 180.008 16.2188 179.581 15.8498C179.144 15.4725 178.604 15.2838 177.958 15.2838C177.379 15.2838 176.88 15.4683 176.461 15.8373C176.05 16.2063 175.802 16.7053 175.719 17.3342H180.247Z" fill="black"/>
<path fill-rule="evenodd" clip-rule="evenodd" d="M181.945 18.7054H175.706C175.756 19.3595 176 19.8837 176.436 20.2778C176.872 20.672 177.404 20.869 178.033 20.869C178.939 20.869 179.581 20.4875 179.958 19.7243H181.782C181.539 20.4791 181.09 21.0955 180.436 21.5735C179.79 22.0515 178.989 22.2905 178.033 22.2905C177.253 22.2905 176.557 22.1144 175.945 21.7622C175.324 21.4099 174.838 20.9152 174.486 20.2778C174.134 19.6405 173.958 18.9024 173.958 18.0638C173.958 17.2252 174.129 16.4872 174.473 15.8498C174.817 15.2125 175.295 14.7219 175.907 14.3781C176.528 14.0342 177.237 13.8623 178.033 13.8623C178.805 13.8623 179.492 14.03 180.096 14.3655C180.7 14.7009 181.17 15.1706 181.505 15.7744C181.841 16.3866 182.008 17.0868 182.008 17.8751C182.008 18.177 181.987 18.4538 181.945 18.7054ZM180.247 17.3342C180.23 16.7136 180.008 16.2188 179.581 15.8498C179.144 15.4725 178.604 15.2838 177.958 15.2838C177.379 15.2838 176.88 15.4683 176.461 15.8373C176.05 16.2063 175.802 16.7053 175.719 17.3342H180.247Z" fill="black"/>
<path fill-rule="evenodd" clip-rule="evenodd" d="M67.1856 45.8778H61.0846L60.0783 48.7962H56.8579L62.3551 33.4619H65.9277L71.4374 48.7962H68.192L67.1856 45.8778ZM66.3554 43.4122L64.1414 37.0093L61.9148 43.4122H66.3554Z" fill="black"/>
<path fill-rule="evenodd" clip-rule="evenodd" d="M67.1856 45.8778H61.0846L60.0783 48.7962H56.8579L62.3551 33.4619H65.9277L71.4374 48.7962H68.192L67.1856 45.8778ZM66.3554 43.4122L64.1414 37.0093L61.9148 43.4122H66.3554Z" fill="black"/>
<path fill-rule="evenodd" clip-rule="evenodd" d="M78.2057 36.9968C78.9017 36.6278 79.6942 36.4434 80.5832 36.4434C81.6231 36.4434 82.5623 36.6991 83.401 37.2107C84.2396 37.7223 84.9063 38.4477 85.4011 39.3869C85.8875 40.3346 86.1307 41.429 86.1307 42.6702C86.1307 43.9113 85.8875 45.0099 85.4011 45.966C84.9063 46.9304 84.2396 47.6726 83.401 48.1925C82.5623 48.7208 81.6231 48.985 80.5832 48.985C79.6942 48.985 78.9101 48.8047 78.2308 48.4441C77.5431 48.0751 76.9897 47.6139 76.5703 47.0604V54.5829H73.501V36.6446H76.5703V38.3932C76.9645 37.8397 77.5096 37.3742 78.2057 36.9968ZM82.5456 40.7707C82.2437 40.2423 81.8495 39.8398 81.3631 39.563C80.8683 39.2779 80.3358 39.1353 79.7655 39.1353C79.212 39.1353 78.6921 39.2779 78.2057 39.563C77.7109 39.8482 77.3167 40.2633 77.0232 40.8084C76.7213 41.3451 76.5703 41.9825 76.5703 42.7205C76.5703 43.4501 76.7213 44.0833 77.0232 44.62C77.3167 45.1651 77.7109 45.5802 78.2057 45.8653C78.6921 46.1505 79.212 46.293 79.7655 46.293C80.3358 46.293 80.8683 46.1463 81.3631 45.8527C81.8495 45.5592 82.2437 45.1441 82.5456 44.6074C82.8475 44.0623 82.9984 43.4165 82.9984 42.6702C82.9984 41.9406 82.8475 41.3074 82.5456 40.7707Z" fill="black"/>
<path fill-rule="evenodd" clip-rule="evenodd" d="M78.2057 36.9968C78.9017 36.6278 79.6942 36.4434 80.5832 36.4434C81.6231 36.4434 82.5623 36.6991 83.401 37.2107C84.2396 37.7223 84.9063 38.4477 85.4011 39.3869C85.8875 40.3346 86.1307 41.429 86.1307 42.6702C86.1307 43.9113 85.8875 45.0099 85.4011 45.966C84.9063 46.9304 84.2396 47.6726 83.401 48.1925C82.5623 48.7208 81.6231 48.985 80.5832 48.985C79.6942 48.985 78.9101 48.8047 78.2308 48.4441C77.5431 48.0751 76.9897 47.6139 76.5703 47.0604V54.5829H73.501V36.6446H76.5703V38.3932C76.9645 37.8397 77.5096 37.3742 78.2057 36.9968ZM82.5456 40.7707C82.2437 40.2423 81.8495 39.8398 81.3631 39.563C80.8683 39.2779 80.3358 39.1353 79.7655 39.1353C79.212 39.1353 78.6921 39.2779 78.2057 39.563C77.7109 39.8482 77.3167 40.2633 77.0232 40.8084C76.7213 41.3451 76.5703 41.9825 76.5703 42.7205C76.5703 43.4501 76.7213 44.0833 77.0232 44.62C77.3167 45.1651 77.7109 45.5802 78.2057 45.8653C78.6921 46.1505 79.212 46.293 79.7655 46.293C80.3358 46.293 80.8683 46.1463 81.3631 45.8527C81.8495 45.5592 82.2437 45.1441 82.5456 44.6074C82.8475 44.0623 82.9984 43.4165 82.9984 42.6702C82.9984 41.9406 82.8475 41.3074 82.5456 40.7707Z" fill="black"/>
<path fill-rule="evenodd" clip-rule="evenodd" d="M93.0763 36.9968C93.7723 36.6278 94.5649 36.4434 95.4538 36.4434C96.4937 36.4434 97.4329 36.6991 98.2716 37.2107C99.1102 37.7223 99.7769 38.4477 100.272 39.3869C100.758 40.3346 101.001 41.429 101.001 42.6702C101.001 43.9113 100.758 45.0099 100.272 45.966C99.7769 46.9304 99.1102 47.6726 98.2716 48.1925C97.4329 48.7208 96.4937 48.985 95.4538 48.985C94.5649 48.985 93.7807 48.8047 93.1015 48.4441C92.4222 48.0751 91.8686 47.6139 91.4409 47.0604V54.5829H88.3716V36.6446H91.4409V38.3932C91.8351 37.8397 92.3802 37.3742 93.0763 36.9968ZM97.4162 40.7707C97.1143 40.2423 96.7201 39.8398 96.2337 39.563C95.7389 39.2779 95.2106 39.1353 94.6487 39.1353C94.0868 39.1353 93.5627 39.2779 93.0763 39.563C92.5815 39.8482 92.1873 40.2633 91.8938 40.8084C91.5919 41.3451 91.4409 41.9825 91.4409 42.7205C91.4409 43.4501 91.5919 44.0833 91.8938 44.62C92.1873 45.1651 92.5815 45.5802 93.0763 45.8653C93.5627 46.1505 94.0868 46.293 94.6487 46.293C95.2106 46.293 95.7389 46.1463 96.2337 45.8527C96.7201 45.5592 97.1143 45.1441 97.4162 44.6074C97.7181 44.0623 97.869 43.4165 97.869 42.6702C97.869 41.9406 97.7181 41.3074 97.4162 40.7707Z" fill="black"/>
<path fill-rule="evenodd" clip-rule="evenodd" d="M93.0763 36.9968C93.7723 36.6278 94.5649 36.4434 95.4538 36.4434C96.4937 36.4434 97.4329 36.6991 98.2716 37.2107C99.1102 37.7223 99.7769 38.4477 100.272 39.3869C100.758 40.3346 101.001 41.429 101.001 42.6702C101.001 43.9113 100.758 45.0099 100.272 45.966C99.7769 46.9304 99.1102 47.6726 98.2716 48.1925C97.4329 48.7208 96.4937 48.985 95.4538 48.985C94.5649 48.985 93.7807 48.8047 93.1015 48.4441C92.4222 48.0751 91.8686 47.6139 91.4409 47.0604V54.5829H88.3716V36.6446H91.4409V38.3932C91.8351 37.8397 92.3802 37.3742 93.0763 36.9968ZM97.4162 40.7707C97.1143 40.2423 96.7201 39.8398 96.2337 39.563C95.7389 39.2779 95.2106 39.1353 94.6487 39.1353C94.0868 39.1353 93.5627 39.2779 93.0763 39.563C92.5815 39.8482 92.1873 40.2633 91.8938 40.8084C91.5919 41.3451 91.4409 41.9825 91.4409 42.7205C91.4409 43.4501 91.5919 44.0833 91.8938 44.62C92.1873 45.1651 92.5815 45.5802 93.0763 45.8653C93.5627 46.1505 94.0868 46.293 94.6487 46.293C95.2106 46.293 95.7389 46.1463 96.2337 45.8527C96.7201 45.5592 97.1143 45.1441 97.4162 44.6074C97.7181 44.0623 97.869 43.4165 97.869 42.6702C97.869 41.9406 97.7181 41.3074 97.4162 40.7707Z" fill="black"/>
<path d="M110.861 48.3928C110.006 48.0322 109.331 47.508 108.836 46.8204C108.333 46.1327 108.077 45.3192 108.069 44.38H111.352C111.394 45.0089 111.616 45.5079 112.019 45.8769C112.421 46.2375 112.975 46.4178 113.679 46.4178C114.392 46.4178 114.954 46.2459 115.365 45.9021C115.776 45.5582 115.981 45.1096 115.981 44.5561C115.981 44.1032 115.843 43.73 115.566 43.4365C115.289 43.143 114.941 42.9124 114.522 42.7446C114.103 42.5769 113.528 42.3924 112.799 42.1911C111.809 41.8976 111 41.6083 110.371 41.3232C109.75 41.038 109.218 40.6061 108.773 40.0275C108.329 39.4488 108.107 38.6773 108.107 37.7129C108.107 36.8072 108.333 36.0188 108.786 35.3479C109.239 34.677 109.876 34.1613 110.698 33.8007C111.511 33.4401 112.446 33.2598 113.503 33.2598C115.08 33.2598 116.363 33.6455 117.352 34.4171C118.342 35.1802 118.887 36.2495 118.988 37.6248H115.604C115.579 37.0965 115.357 36.6604 114.937 36.3166C114.518 35.9727 113.964 35.8008 113.277 35.8008C112.681 35.8008 112.203 35.956 111.843 36.2662C111.49 36.5765 111.314 37.021 111.314 37.5997C111.314 38.0106 111.449 38.3502 111.717 38.6186C111.985 38.8953 112.321 39.1176 112.723 39.2853C113.126 39.453 113.692 39.6459 114.421 39.864C115.419 40.1575 116.233 40.451 116.862 40.7445C117.491 41.038 118.032 41.4741 118.485 42.0528C118.937 42.6398 119.164 43.4071 119.164 44.3548C119.164 45.1767 118.95 45.9398 118.522 46.6443C118.103 47.3403 117.482 47.898 116.661 48.3173C115.839 48.7366 114.866 48.9463 113.742 48.9463C112.677 48.9463 111.717 48.7618 110.861 48.3928Z" fill="black"/>
<path d="M110.861 48.3928C110.006 48.0322 109.331 47.508 108.836 46.8204C108.333 46.1327 108.077 45.3192 108.069 44.38H111.352C111.394 45.0089 111.616 45.5079 112.019 45.8769C112.421 46.2375 112.975 46.4178 113.679 46.4178C114.392 46.4178 114.954 46.2459 115.365 45.9021C115.776 45.5582 115.981 45.1096 115.981 44.5561C115.981 44.1032 115.843 43.73 115.566 43.4365C115.289 43.143 114.941 42.9124 114.522 42.7446C114.103 42.5769 113.528 42.3924 112.799 42.1911C111.809 41.8976 111 41.6083 110.371 41.3232C109.75 41.038 109.218 40.6061 108.773 40.0275C108.329 39.4488 108.107 38.6773 108.107 37.7129C108.107 36.8072 108.333 36.0188 108.786 35.3479C109.239 34.677 109.876 34.1613 110.698 33.8007C111.511 33.4401 112.446 33.2598 113.503 33.2598C115.08 33.2598 116.363 33.6455 117.352 34.4171C118.342 35.1802 118.887 36.2495 118.988 37.6248H115.604C115.579 37.0965 115.357 36.6604 114.937 36.3166C114.518 35.9727 113.964 35.8008 113.277 35.8008C112.681 35.8008 112.203 35.956 111.843 36.2662C111.49 36.5765 111.314 37.021 111.314 37.5997C111.314 38.0106 111.449 38.3502 111.717 38.6186C111.985 38.8953 112.321 39.1176 112.723 39.2853C113.126 39.453 113.692 39.6459 114.421 39.864C115.419 40.1575 116.233 40.451 116.862 40.7445C117.491 41.038 118.032 41.4741 118.485 42.0528C118.937 42.6398 119.164 43.4071 119.164 44.3548C119.164 45.1767 118.95 45.9398 118.522 46.6443C118.103 47.3403 117.482 47.898 116.661 48.3173C115.839 48.7366 114.866 48.9463 113.742 48.9463C112.677 48.9463 111.717 48.7618 110.861 48.3928Z" fill="black"/>
<path d="M125.392 39.1601V45.0346C125.392 45.4456 125.488 45.7433 125.681 45.9278C125.882 46.1123 126.218 46.2045 126.687 46.2045H128.109V48.7959H126.184C123.593 48.7959 122.297 47.5379 122.297 45.0221V39.1601H120.851V36.6442H122.297V33.6377H125.392V36.6442H128.109V39.1601H125.392Z" fill="black"/>
<path d="M125.392 39.1601V45.0346C125.392 45.4456 125.488 45.7433 125.681 45.9278C125.882 46.1123 126.218 46.2045 126.687 46.2045H128.109V48.7959H126.184C123.593 48.7959 122.297 47.5379 122.297 45.0221V39.1601H120.851V36.6442H122.297V33.6377H125.392V36.6442H128.109V39.1601H125.392Z" fill="black"/>
<path fill-rule="evenodd" clip-rule="evenodd" d="M132.561 48.2051C131.622 47.6852 130.888 46.9514 130.36 46.0037C129.823 45.0561 129.555 43.9616 129.555 42.7205C129.555 41.4709 129.827 40.3723 130.372 39.4247C130.926 38.477 131.676 37.7432 132.624 37.2233C133.572 36.7033 134.633 36.4434 135.807 36.4434C136.972 36.4434 138.033 36.7033 138.989 37.2233C139.937 37.7432 140.687 38.477 141.241 39.4247C141.786 40.3723 142.059 41.4709 142.059 42.7205C142.059 43.9616 141.778 45.0561 141.216 46.0037C140.654 46.9514 139.891 47.6852 138.926 48.2051C137.97 48.7251 136.901 48.985 135.719 48.985C134.553 48.985 133.5 48.7251 132.561 48.2051ZM137.291 45.9031C137.777 45.6347 138.167 45.228 138.461 44.6829C138.754 44.1461 138.901 43.492 138.901 42.7205C138.901 41.5632 138.595 40.6742 137.983 40.0536C137.379 39.4331 136.637 39.1228 135.756 39.1228C134.884 39.1228 134.15 39.4331 133.555 40.0536C132.968 40.6742 132.674 41.5632 132.674 42.7205C132.674 43.8694 132.964 44.7542 133.542 45.3747C134.113 46.0037 134.838 46.314 135.719 46.3056C136.272 46.314 136.796 46.1798 137.291 45.9031Z" fill="black"/>
<path fill-rule="evenodd" clip-rule="evenodd" d="M132.561 48.2051C131.622 47.6852 130.888 46.9514 130.36 46.0037C129.823 45.0561 129.555 43.9616 129.555 42.7205C129.555 41.4709 129.827 40.3723 130.372 39.4247C130.926 38.477 131.676 37.7432 132.624 37.2233C133.572 36.7033 134.633 36.4434 135.807 36.4434C136.972 36.4434 138.033 36.7033 138.989 37.2233C139.937 37.7432 140.687 38.477 141.241 39.4247C141.786 40.3723 142.059 41.4709 142.059 42.7205C142.059 43.9616 141.778 45.0561 141.216 46.0037C140.654 46.9514 139.891 47.6852 138.926 48.2051C137.97 48.7251 136.901 48.985 135.719 48.985C134.553 48.985 133.5 48.7251 132.561 48.2051ZM137.291 45.9031C137.777 45.6347 138.167 45.228 138.461 44.6829C138.754 44.1461 138.901 43.492 138.901 42.7205C138.901 41.5632 138.595 40.6742 137.983 40.0536C137.379 39.4331 136.637 39.1228 135.756 39.1228C134.884 39.1228 134.15 39.4331 133.555 40.0536C132.968 40.6742 132.674 41.5632 132.674 42.7205C132.674 43.8694 132.964 44.7542 133.542 45.3747C134.113 46.0037 134.838 46.314 135.719 46.3056C136.272 46.314 136.796 46.1798 137.291 45.9031Z" fill="black"/>
<path d="M148.926 37.0087C149.563 36.6481 150.293 36.4678 151.115 36.4678V39.6881H150.297C149.332 39.6881 148.607 39.9145 148.121 40.3674C147.634 40.8202 147.391 41.6086 147.391 42.7323V48.7956H144.309V36.6439H147.391V38.5308C147.785 37.8851 148.297 37.3777 148.926 37.0087Z" fill="black"/>
<path d="M148.926 37.0087C149.563 36.6481 150.293 36.4678 151.115 36.4678V39.6881H150.297C149.332 39.6881 148.607 39.9145 148.121 40.3674C147.634 40.8202 147.391 41.6086 147.391 42.7323V48.7956H144.309V36.6439H147.391V38.5308C147.785 37.8851 148.297 37.3777 148.926 37.0087Z" fill="black"/>
<path fill-rule="evenodd" clip-rule="evenodd" d="M164.387 43.6388H155.506C155.574 44.5109 155.88 45.1986 156.425 45.7018C156.961 46.1966 157.624 46.444 158.412 46.444C159.553 46.444 160.366 45.9534 160.853 44.9722H164.161C163.809 46.1463 163.138 47.1065 162.148 47.8529C161.15 48.6076 159.93 48.985 158.488 48.985C157.314 48.985 156.265 48.7251 155.343 48.2051C154.412 47.6852 153.687 46.9514 153.167 46.0037C152.647 45.0561 152.387 43.9616 152.387 42.7205C152.387 41.4625 152.643 40.3556 153.154 39.3995C153.666 38.4519 154.383 37.7223 155.305 37.2107C156.228 36.6991 157.288 36.4434 158.488 36.4434C159.637 36.4434 160.668 36.6907 161.582 37.1855C162.496 37.6887 163.209 38.3932 163.721 39.2989C164.224 40.213 164.476 41.2655 164.476 42.4563C164.476 42.8924 164.446 43.2865 164.387 43.6388ZM161.293 41.5757C161.276 40.7874 160.991 40.1543 160.438 39.6763C159.884 39.1982 159.205 38.9592 158.4 38.9592C157.637 38.9592 156.995 39.1899 156.475 39.6511C155.955 40.1124 155.636 40.7539 155.519 41.5757H161.293Z" fill="black"/>
<path fill-rule="evenodd" clip-rule="evenodd" d="M164.387 43.6388H155.506C155.574 44.5109 155.88 45.1986 156.425 45.7018C156.961 46.1966 157.624 46.444 158.412 46.444C159.553 46.444 160.366 45.9534 160.853 44.9722H164.161C163.809 46.1463 163.138 47.1065 162.148 47.8529C161.15 48.6076 159.93 48.985 158.488 48.985C157.314 48.985 156.265 48.7251 155.343 48.2051C154.412 47.6852 153.687 46.9514 153.167 46.0037C152.647 45.0561 152.387 43.9616 152.387 42.7205C152.387 41.4625 152.643 40.3556 153.154 39.3995C153.666 38.4519 154.383 37.7223 155.305 37.2107C156.228 36.6991 157.288 36.4434 158.488 36.4434C159.637 36.4434 160.668 36.6907 161.582 37.1855C162.496 37.6887 163.209 38.3932 163.721 39.2989C164.224 40.213 164.476 41.2655 164.476 42.4563C164.476 42.8924 164.446 43.2865 164.387 43.6388ZM161.293 41.5757C161.276 40.7874 160.991 40.1543 160.438 39.6763C159.884 39.1982 159.205 38.9592 158.4 38.9592C157.637 38.9592 156.995 39.1899 156.475 39.6511C155.955 40.1124 155.636 40.7539 155.519 41.5757H161.293Z" fill="black"/>
<path d="M29.2089 23.3096C29.2089 23.3096 28.819 20.5799 31.0707 17.9759C33.5362 15.133 36.1905 15.3846 36.1905 15.3846C36.1905 15.3846 36.3289 18.2904 34.7061 20.4415C31.7625 24.316 29.2089 23.3096 29.2089 23.3096Z" fill="black"/>
<path d="M29.2089 23.3096C29.2089 23.3096 28.819 20.5799 31.0707 17.9759C33.5362 15.133 36.1905 15.3846 36.1905 15.3846C36.1905 15.3846 36.3289 18.2904 34.7061 20.4415C31.7625 24.316 29.2089 23.3096 29.2089 23.3096Z" fill="black"/>
<path d="M29.1703 25.4225C31.2333 25.3345 33.2209 23.5482 36.9947 23.9004C40.1018 24.1898 42.6554 27.0579 42.429 27.2969C42.19 27.5359 38.6174 29.926 38.7181 34.1149C38.8564 39.5744 43.3976 41.1091 43.3976 41.1091C43.3976 41.1091 41.4855 47.8516 36.7431 50.2417C35.3468 50.9462 31.3969 48.8328 29.8244 48.8202C28.1639 48.8076 24.7298 50.8204 23.1447 50.3172C19.0439 48.9838 15.3833 41.4864 14.943 35.3854C14.4146 28.3284 18.7042 24.8439 21.5849 24.2401C25.95 23.3469 26.6795 25.5232 29.1703 25.4225Z" fill="black"/>
<path d="M29.1703 25.4225C31.2333 25.3345 33.2209 23.5482 36.9947 23.9004C40.1018 24.1898 42.6554 27.0579 42.429 27.2969C42.19 27.5359 38.6174 29.926 38.7181 34.1149C38.8564 39.5744 43.3976 41.1091 43.3976 41.1091C43.3976 41.1091 41.4855 47.8516 36.7431 50.2417C35.3468 50.9462 31.3969 48.8328 29.8244 48.8202C28.1639 48.8076 24.7298 50.8204 23.1447 50.3172C19.0439 48.9838 15.3833 41.4864 14.943 35.3854C14.4146 28.3284 18.7042 24.8439 21.5849 24.2401C25.95 23.3469 26.6795 25.5232 29.1703 25.4225Z" fill="black"/>
</g>
</svg>
