<svg width="200" height="66" viewBox="0 0 200 66" fill="none" xmlns="http://www.w3.org/2000/svg">
<g opacity="0.8">
<path d="M191.392 64.9806H8.34163C4.02849 64.9806 0.532715 61.4875 0.532715 57.1776V8.33626C0.532715 4.02636 4.02849 0.533203 8.34163 0.533203H191.392C195.705 0.533203 199.201 4.02636 199.201 8.33626V57.1776C199.201 61.4875 195.705 64.9806 191.392 64.9806Z" fill="black"/>
<path d="M191.392 64.9806H8.34163C4.02849 64.9806 0.532715 61.4875 0.532715 57.1776V8.33626C0.532715 4.02636 4.02849 0.533203 8.34163 0.533203H191.392C195.705 0.533203 199.201 4.02636 199.201 8.33626V57.1776C199.201 61.4875 195.705 64.9806 191.392 64.9806Z" fill="white"/>
<path fill-rule="evenodd" clip-rule="evenodd" d="M8.42954 1.25796C4.46746 1.25796 1.25627 4.4735 1.25627 8.44095V57.338C1.25627 61.3055 4.46746 64.521 8.42954 64.521H191.304C195.266 64.521 198.477 61.3055 198.477 57.338V8.44095C198.477 4.4735 195.266 1.25796 191.304 1.25796H8.42954ZM0 8.44095C0 3.77875 3.77364 0 8.42954 0H191.304C195.96 0 199.734 3.77875 199.734 8.44095V57.338C199.734 62.0002 195.96 65.779 191.304 65.779H8.42954C3.77364 65.779 0 62.0002 0 57.338V8.44095Z" fill="black"/>
<path fill-rule="evenodd" clip-rule="evenodd" d="M8.44078 1.25796C4.47341 1.25796 1.25794 4.4735 1.25794 8.44094V57.338C1.25794 61.3055 4.47341 64.521 8.44078 64.521H191.559C195.527 64.521 198.742 61.3055 198.742 57.338V8.44094C198.742 4.4735 195.527 1.25796 191.559 1.25796H8.44078ZM0 8.44094C0 3.77875 3.77867 0 8.44078 0H191.559C196.221 0 200 3.77875 200 8.44094V57.338C200 62.0002 196.221 65.779 191.559 65.779H8.44078C3.77867 65.779 0 62.0002 0 57.338V8.44094Z" fill="black"/>
<path d="M64.8234 14.511C64.5611 13.9969 64.2004 13.6113 63.7414 13.3543C63.2741 13.0972 62.7372 12.9687 62.1306 12.9687C61.4666 12.9687 60.8723 13.1179 60.3476 13.4165C59.8312 13.7233 59.4254 14.1545 59.1303 14.7101C58.8352 15.2656 58.6876 15.9125 58.6876 16.6505C58.6876 17.3802 58.8352 18.027 59.1303 18.5909C59.4254 19.1465 59.8312 19.5777 60.3476 19.8845C60.8723 20.183 61.4666 20.3323 62.1306 20.3323C63.0323 20.3323 63.7619 20.0794 64.3193 19.5735C64.8767 19.0677 65.2169 18.3794 65.3399 17.5087H61.5649V16.1778H67.1106V17.4838C67.004 18.2716 66.7253 18.9972 66.2744 19.6606C65.8317 20.324 65.2497 20.8547 64.5283 21.2527C63.807 21.6425 63.0077 21.8373 62.1306 21.8373C61.1879 21.8373 60.323 21.6176 59.536 21.1781C58.7573 20.7303 58.1384 20.1125 57.6793 19.3247C57.2203 18.537 56.9907 17.6455 56.9907 16.6505C56.9907 15.6471 57.2203 14.7515 57.6793 13.9638C58.1384 13.176 58.7614 12.5582 59.5484 12.1104C60.3353 11.6709 61.1961 11.4512 62.1306 11.4512C63.2044 11.4512 64.1595 11.7165 64.9956 12.2472C65.8236 12.7779 66.4261 13.5325 66.8032 14.511H64.8234Z" fill="black"/>
<path d="M70.6326 12.8335V15.8897H74.1341V17.272H70.6326V20.455H74.5672V21.8373H68.9746V11.4512H74.5672V12.8335H70.6326Z" fill="black"/>
<path d="M83.3555 11.4512V12.8478H80.6229V21.8373H78.9228V12.8478H76.165V11.4512H83.3555Z" fill="black"/>
<path d="M90.5461 11.4512V21.8373H88.9482V11.4512H90.5461Z" fill="black"/>
<path d="M99.3335 11.4512V12.8478H96.6009V21.8373H94.9008V12.8478H92.1431V11.4512H99.3335Z" fill="black"/>
<path fill-rule="evenodd" clip-rule="evenodd" d="M106.979 21.1672C106.184 20.7288 105.554 20.1125 105.09 19.3183C104.626 18.5242 104.395 17.6307 104.395 16.638C104.395 15.6371 104.626 14.7436 105.09 13.9577C105.554 13.1719 106.184 12.5556 106.979 12.1088C107.774 11.6704 108.643 11.4512 109.588 11.4512C110.54 11.4512 111.414 11.6704 112.209 12.1088C113.004 12.5556 113.634 13.1719 114.097 13.9577C114.553 14.7436 114.781 15.6371 114.781 16.638C114.781 17.6307 114.553 18.5242 114.097 19.3183C113.634 20.1125 113.004 20.7288 112.209 21.1672C111.414 21.614 110.54 21.8373 109.588 21.8373C108.643 21.8373 107.774 21.614 106.979 21.1672ZM111.389 19.9264C111.919 19.6203 112.329 19.1818 112.619 18.611C112.917 18.0402 113.066 17.3826 113.066 16.638C113.066 15.8852 112.917 15.2276 112.619 14.665C112.329 14.0942 111.919 13.6599 111.389 13.3621C110.859 13.056 110.258 12.903 109.588 12.903C108.917 12.903 108.316 13.056 107.786 13.3621C107.264 13.6599 106.854 14.0942 106.556 14.665C106.258 15.2276 106.109 15.8852 106.109 16.638C106.109 17.3826 106.258 18.0402 106.556 18.611C106.854 19.1818 107.264 19.6203 107.786 19.9264C108.316 20.2325 108.917 20.3855 109.588 20.3855C110.258 20.3855 110.859 20.2325 111.389 19.9264Z" fill="black"/>
<path d="M124.901 21.8373H123.254L118.291 14.0889V21.8373H116.645V11.4512H118.291L123.254 19.1869V11.4512H124.901V21.8373Z" fill="black"/>
<path d="M68.5023 37.7694C68.1469 37.1315 67.6604 36.6468 67.0427 36.3155C66.4251 35.9841 65.7016 35.8184 64.8724 35.8184C63.9586 35.8184 63.1463 36.0214 62.4355 36.4273C61.7248 36.8332 61.1706 37.409 60.7729 38.1546C60.3752 38.9085 60.1764 39.7783 60.1764 40.7641C60.1764 41.7748 60.3795 42.653 60.7856 43.3985C61.1917 44.1524 61.7587 44.7323 62.4863 45.1382C63.2055 45.5442 64.0432 45.7471 64.9993 45.7471C66.1839 45.7471 67.1527 45.4406 67.9058 44.8276C68.6588 44.2063 69.1538 43.3488 69.3907 42.2553H64.0728V39.9316H72.4368V42.5784C72.2337 43.6305 71.7938 44.6039 71.1168 45.4986C70.4315 46.4016 69.5557 47.1223 68.4896 47.6608C67.4235 48.1993 66.2262 48.4685 64.8978 48.4685C63.4086 48.4685 62.059 48.1413 60.8491 47.4868C59.6476 46.8324 58.7041 45.917 58.0188 44.7406C57.3334 43.5725 56.9907 42.247 56.9907 40.7641C56.9907 39.273 57.3334 37.9392 58.0188 36.7628C58.7041 35.5864 59.6476 34.6669 60.8491 34.0041C62.059 33.3497 63.4002 33.0225 64.8724 33.0225C66.6154 33.0225 68.1258 33.4367 69.4034 34.2651C70.6896 35.1018 71.578 36.2699 72.0687 37.7694H68.5023Z" fill="black"/>
<path fill-rule="evenodd" clip-rule="evenodd" d="M76.7776 47.9578C75.8458 47.4394 75.1113 46.7036 74.574 45.7505C74.0367 44.8057 73.7681 43.7145 73.7681 42.4771C73.7681 41.2396 74.0451 40.1443 74.5992 39.1911C75.1448 38.2463 75.8961 37.5147 76.8532 36.9963C77.8018 36.4779 78.8595 36.2188 80.0264 36.2188C81.2016 36.2188 82.2636 36.4779 83.2122 36.9963C84.1608 37.5147 84.9122 38.2463 85.4662 39.1911C86.0119 40.1443 86.2847 41.2396 86.2847 42.4771C86.2847 43.7145 86.0035 44.8057 85.441 45.7505C84.8786 46.7036 84.1188 47.4394 83.1618 47.9578C82.2048 48.4762 81.1303 48.7354 79.9382 48.7354C78.7714 48.7354 77.7178 48.4762 76.7776 47.9578ZM81.5123 45.6627C81.9992 45.3868 82.3895 44.9812 82.6833 44.4461C82.9772 43.9027 83.1241 43.2463 83.1241 42.4771C83.1241 41.3232 82.8219 40.437 82.2174 39.8182C81.6046 39.1995 80.8617 38.8901 79.9886 38.8901C79.1072 38.8901 78.3726 39.1995 77.785 39.8182C77.189 40.437 76.8909 41.3232 76.8909 42.4771C76.8909 43.6309 77.1805 44.5172 77.7598 45.1359C78.339 45.7546 79.0652 46.064 79.9382 46.064C80.5007 46.064 81.0254 45.9302 81.5123 45.6627Z" fill="black"/>
<path fill-rule="evenodd" clip-rule="evenodd" d="M90.8933 47.9578C89.9531 47.4394 89.2144 46.7036 88.6771 45.7505C88.1482 44.8057 87.8838 43.7145 87.8838 42.4771C87.8838 41.2396 88.1566 40.1443 88.7023 39.1911C89.2563 38.2463 90.0077 37.5147 90.9563 36.9963C91.9049 36.4779 92.9668 36.2188 94.1421 36.2188C95.309 36.2188 96.3667 36.4779 97.3153 36.9963C98.2723 37.5147 99.0237 38.2463 99.5694 39.1911C100.123 40.1443 100.4 41.2396 100.4 42.4771C100.4 43.7145 100.115 44.8057 99.5442 45.7505C98.9817 46.7036 98.222 47.4394 97.265 47.9578C96.308 48.4762 95.2376 48.7354 94.054 48.7354C92.8787 48.7354 91.8251 48.4762 90.8933 47.9578ZM95.6154 45.6627C96.1107 45.3868 96.5053 44.9812 96.7991 44.4461C97.0845 43.9027 97.2272 43.2463 97.2272 42.4771C97.2272 41.3232 96.925 40.437 96.3206 39.8182C95.7161 39.1995 94.9732 38.8901 94.0918 38.8901C93.2187 38.8901 92.4841 39.1995 91.8881 39.8182C91.2921 40.437 90.9941 41.3232 90.9941 42.4771C90.9941 43.6309 91.2837 44.5172 91.8629 45.1359C92.4422 45.7546 93.1725 46.064 94.054 46.064C94.608 46.064 95.1285 45.9302 95.6154 45.6627Z" fill="black"/>
<path fill-rule="evenodd" clip-rule="evenodd" d="M109.748 36.7528C110.443 37.1089 110.993 37.5685 111.4 38.1315V36.4175H114.513V48.5027C114.513 49.6123 114.284 50.6059 113.827 51.4836C113.369 52.3531 112.683 53.0445 111.768 53.5579C110.853 54.0713 109.748 54.3279 108.452 54.3279C106.707 54.3279 105.275 53.9305 104.157 53.1356C103.047 52.3407 102.416 51.2559 102.264 49.8814H105.351C105.512 50.4362 105.86 50.875 106.393 51.198C106.935 51.5209 107.592 51.6824 108.363 51.6824C109.261 51.6824 109.989 51.4174 110.548 50.8874C111.108 50.3658 111.391 49.5709 111.4 48.5027V46.6396C110.993 47.2027 110.443 47.6705 109.748 48.0431C109.045 48.424 108.24 48.6145 107.334 48.6145C106.3 48.6145 105.356 48.3536 104.5 47.832C103.644 47.3103 102.971 46.5775 102.48 45.6335C101.98 44.6896 101.73 43.6007 101.73 42.3669C101.73 41.158 101.98 40.0857 102.48 39.15C102.971 38.206 103.64 37.4815 104.487 36.9764C105.343 36.4713 106.292 36.2188 107.334 36.2188C108.257 36.2188 109.062 36.3968 109.748 36.7528ZM110.955 40.5163C110.659 39.9946 110.256 39.593 109.748 39.3115C109.248 39.0299 108.71 38.8892 108.134 38.8892C107.558 38.8892 107.029 39.0258 106.546 39.299C106.054 39.5723 105.656 39.9739 105.351 40.5038C105.055 41.0255 104.907 41.6465 104.907 42.3669C104.907 43.0956 105.055 43.7291 105.351 44.2673C105.656 44.8055 106.059 45.2195 106.559 45.5093C107.05 45.7991 107.575 45.9441 108.134 45.9441C108.71 45.9441 109.248 45.8033 109.748 45.5218C110.256 45.2402 110.659 44.8345 110.955 44.3045C111.243 43.7829 111.391 43.1536 111.4 42.4166C111.391 41.6797 111.243 41.0462 110.955 40.5163Z" fill="black"/>
<path d="M120.64 32.2236V48.4686H117.444V32.2236H120.64Z" fill="black"/>
<path fill-rule="evenodd" clip-rule="evenodd" d="M134.665 43.3926H125.861C125.927 44.2705 126.231 44.9562 126.771 45.4495C127.303 45.9428 127.964 46.1894 128.754 46.1894C129.884 46.1894 130.687 45.7003 131.161 44.722H134.44C134.099 45.8926 133.434 46.8541 132.445 47.6066C131.456 48.3591 130.246 48.7354 128.816 48.7354C127.652 48.7354 126.613 48.4762 125.699 47.9578C124.776 47.4394 124.057 46.7036 123.541 45.7505C123.026 44.8057 122.768 43.7145 122.768 42.4771C122.768 41.2229 123.022 40.1234 123.529 39.1786C124.036 38.2254 124.747 37.4938 125.661 36.9838C126.576 36.4738 127.627 36.2188 128.816 36.2188C129.963 36.2188 130.99 36.4696 131.896 36.9713C132.794 37.4646 133.497 38.1669 134.004 39.0783C134.503 39.9896 134.752 41.0348 134.752 42.2137C134.752 42.6485 134.723 43.0415 134.665 43.3926ZM131.597 41.3358C131.58 40.5498 131.298 39.9186 130.749 39.442C130.2 38.9738 129.527 38.7396 128.729 38.7396C127.972 38.7396 127.336 38.9696 126.821 39.4294C126.305 39.8893 125.99 40.5247 125.873 41.3358H131.597Z" fill="black"/>
<path fill-rule="evenodd" clip-rule="evenodd" d="M152.815 40.1299C152.428 40.8491 151.819 41.4287 150.987 41.8687C150.163 42.3172 149.12 42.5414 147.859 42.5414H145.287V48.4685H142.21V33.0225H147.859C149.045 33.0225 150.053 33.2298 150.886 33.6444C151.726 34.059 152.353 34.6259 152.765 35.3451C153.185 36.0643 153.395 36.8808 153.395 37.7946C153.395 38.6238 153.202 39.4023 152.815 40.1299ZM149.612 39.4446C150.024 39.0554 150.23 38.5054 150.23 37.7946C150.23 36.297 149.393 35.5482 147.721 35.5482H145.287V40.0411H147.721C148.57 40.0411 149.2 39.8423 149.612 39.4446Z" fill="black"/>
<path d="M158.723 32.2236V48.4686H155.527V32.2236H158.723Z" fill="black"/>
<path fill-rule="evenodd" clip-rule="evenodd" d="M161.601 39.1786C162.092 38.2254 162.766 37.4938 163.621 36.9838C164.468 36.4738 165.417 36.2188 166.467 36.2188C167.382 36.2188 168.183 36.4027 168.869 36.7706C169.555 37.1301 170.106 37.59 170.521 38.1502V36.4194H173.634V48.5347H170.521V46.7663C170.123 47.3349 169.572 47.8031 168.869 48.171C168.166 48.5473 167.357 48.7354 166.442 48.7354C165.409 48.7354 164.468 48.472 163.621 47.9453C162.766 47.4185 162.092 46.6786 161.601 45.7254C161.101 44.7722 160.851 43.6727 160.851 42.4269C160.851 41.2062 161.101 40.1234 161.601 39.1786ZM170.076 40.5582C169.78 40.0314 169.382 39.6259 168.882 39.3416C168.373 39.0574 167.831 38.9152 167.255 38.9152C166.679 38.9152 166.15 39.0532 165.667 39.3291C165.176 39.605 164.782 40.0105 164.485 40.5456C164.18 41.0724 164.028 41.6995 164.028 42.4269C164.028 43.1627 164.18 43.8023 164.485 44.3458C164.782 44.8893 165.18 45.3073 165.68 45.6C166.171 45.8926 166.696 46.0389 167.255 46.0389C167.831 46.0389 168.373 45.8968 168.882 45.6125C169.382 45.3282 169.78 44.9185 170.076 44.3834C170.373 43.8567 170.521 43.2212 170.521 42.4771C170.521 41.7329 170.373 41.0933 170.076 40.5582Z" fill="black"/>
<path d="M188.282 36.2188L180.743 54.0616H177.477L180.112 48.0179L175.233 36.2188H178.675L181.827 44.6825L185.017 36.2188H188.282Z" fill="black"/>
<path d="M13.7025 13.3154C13.134 13.9982 12.7803 14.8834 12.7803 15.8823V46.0906C12.7803 46.8745 12.995 47.5953 13.374 48.2022L29.2916 30.664L13.7025 13.3154Z" fill="#4285F5"/>
<path d="M36.4834 22.7089L18.6701 12.5218C16.8596 11.4931 14.758 12.02 13.5806 13.4125L29.2036 30.6252L36.4834 22.7089Z" fill="#00AE45"/>
<path d="M36.4834 22.7089L18.6701 12.5218C16.8596 11.4931 14.758 12.02 13.5806 13.4125L29.2036 30.6252L36.4834 22.7089Z" fill="#00AE45"/>
<path d="M18.7071 49.5262L36.7499 39.064L29.1901 30.626L13.3145 48.1726C14.3854 49.9057 16.729 50.6648 18.7071 49.5262Z" fill="#00AE45"/>
<path d="M18.7071 49.5262L36.7499 39.064L29.1901 30.626L13.3145 48.1726C14.3854 49.9057 16.729 50.6648 18.7071 49.5262Z" fill="#EB4132"/>
<path d="M36.7427 39.148L44.639 34.4796C47.2586 32.9277 47.2586 29.0479 44.639 27.496L36.4323 22.6367L29.2935 30.6634L36.7427 39.148Z" fill="#00AE45"/>
<path opacity="0.5" d="M36.7427 39.148L44.639 34.4796C47.2586 32.9277 47.2586 29.0479 44.639 27.496L36.4323 22.6367L29.2935 30.6634L36.7427 39.148Z" fill="#FFF200"/>
<path d="M36.7427 39.148L44.639 34.4796C47.2586 32.9277 47.2586 29.0479 44.639 27.496L36.4323 22.6367L29.2935 30.6634L36.7427 39.148Z" fill="#FFBB00"/>
</g>
</svg>
